HIERARCHY
ROOT Hips
{
	OFFSET 151.697800 93.143646 -72.043053
	CHANNELS 6 Xposition Yposition Zposition Xrotation Yrotation Zrotation 
	JOINT RightUpLeg
	{
		OFFSET 0.103458 1.857831 10.548505
		CHANNELS 3 Xrotation Yrotation Zrotation
		JOINT RightLeg
		{
			OFFSET 43.500000 -0.000031 0.000002
			CHANNELS 3 Xrotation Yrotation Zrotation
			JOINT RightFoot
			{
				OFFSET 42.372200 0.000023 0.000003
				CHANNELS 3 Xrotation Yrotation Zrotation
				JOINT RightToe
				{
					OFFSET 17.299997 -0.000001 -0.000010
					CHANNELS 3 Xrotation Yrotation Zrotation
					End Site
					{
						OFFSET 0.000000 0.000000 0.000000
					}
				}
			}
		}
	}
	JOINT LeftUpLeg
	{
		OFFSET 0.103457 1.857828 -10.548510
		CHANNELS 3 Xrotation Yrotation Zrotation
		JOINT LeftLeg
		{
			OFFSET 43.500046 -0.000015 0.000002
			CHANNELS 3 Xrotation Yrotation Zrotation
			JOINT LeftFoot
			{
				OFFSET 42.372261 -0.000008 0.000023
				CHANNELS 3 Xrotation Yrotation Zrotation
				JOINT LeftToe
				{
					OFFSET 17.299990 -0.000007 -0.000002
					CHANNELS 3 Xrotation Yrotation Zrotation
					End Site
					{
						OFFSET 0.000000 0.000000 0.000000
					}
				}
			}
		}
	}
	JOINT Spine
	{
		OFFSET 6.901967 -2.603726 -0.000001
		CHANNELS 3 Xrotation Yrotation Zrotation
		JOINT Spine1
		{
			OFFSET 12.588100 -0.000009 -0.000003
			CHANNELS 3 Xrotation Yrotation Zrotation
			JOINT Spine2
			{
				OFFSET 12.343202 0.000008 0.000008
				CHANNELS 3 Xrotation Yrotation Zrotation
				JOINT Neck
				{
					OFFSET 25.832897 -0.000015 -0.000004
					CHANNELS 3 Xrotation Yrotation Zrotation
					JOINT Head
					{
						OFFSET 11.766609 0.000013 -0.000006
						CHANNELS 3 Xrotation Yrotation Zrotation
						End Site
						{
							OFFSET 0.000000 0.000000 0.000000
						}
					}
				}
				JOINT RightShoulder
				{
					OFFSET 19.745911 -1.480373 6.000098
					CHANNELS 3 Xrotation Yrotation Zrotation
					JOINT RightArm
					{
						OFFSET 11.284123 -0.000007 -0.000032
						CHANNELS 3 Xrotation Yrotation Zrotation
						JOINT RightForeArm
						{
							OFFSET 33.000050 0.000005 0.000031
							CHANNELS 3 Xrotation Yrotation Zrotation
							JOINT RightHand
							{
								OFFSET 25.200008 0.000017 0.000013
								CHANNELS 3 Xrotation Yrotation Zrotation
								End Site
								{
									OFFSET 0.000000 0.000000 0.000000
								}
							}
						}
					}
				}
				JOINT LeftShoulder
				{
					OFFSET 19.746092 -1.480379 -6.000077
					CHANNELS 3 Xrotation Yrotation Zrotation
					JOINT LeftArm
					{
						OFFSET 11.284136 -0.000017 -0.000017
						CHANNELS 3 Xrotation Yrotation Zrotation
						JOINT LeftForeArm
						{
							OFFSET 33.000099 0.000019 0.000015
							CHANNELS 3 Xrotation Yrotation Zrotation
							JOINT LeftHand
							{
								OFFSET 25.199780 0.000140 0.000408
								CHANNELS 3 Xrotation Yrotation Zrotation
								End Site
								{
									OFFSET 0.000000 0.000000 0.000000
								}
							}
						}
					}
				}
			}
		}
	}
}
MOTION
Frames: 11
Frame Time: 0.033333
-254.237900 89.804680 -519.592224 92.044538 -8.158638 -133.002990 173.945329 -6.318503 175.308703 -27.695884 -5.127506 0.135059 80.875034 -1.607262 -6.929221 21.454560 0.003105 0.000019 155.537300 4.282808 -173.123412 -81.512919 -1.734257 6.540202 76.096025 -4.337063 0.905243 21.454565 -0.003100 0.000005 8.497372 -0.792832 -1.783120 7.005769 -1.476496 -3.611121 6.688261 -1.498394 -3.602156 11.449046 -1.731619 -6.911638 -11.538291 5.442448 -9.024342 -167.295402 -75.333776 -14.437440 -0.079972 57.819962 38.604823 -35.258164 -19.145391 1.635636 10.183858 -4.675489 12.689881 -159.707212 74.947809 22.246718 -18.403508 -64.760213 -12.423206 -78.195339 11.839222 -2.616618 -13.344419 16.673151 -47.781121 
-253.248398 90.389549 -522.286621 91.803050 -7.365648 -136.021523 177.167976 -5.709508 172.943299 -24.608760 -4.875718 -0.527103 81.502414 -1.207329 -7.405829 21.454558 0.003104 0.000018 151.183259 4.033791 -172.187211 -78.379166 -0.476741 4.829419 75.484252 -3.703111 -0.950445 21.454558 -0.003099 0.000004 8.352334 -0.694202 -1.867487 6.713304 -1.279196 -3.772193 6.395885 -1.302075 -3.764419 10.348706 -1.388479 -6.492569 -11.927573 4.904588 -8.417895 -169.387312 -75.896126 -12.297452 -3.352051 59.271494 35.268351 -40.989447 -20.193862 1.851417 8.729429 -4.286135 10.268731 -160.157281 74.560094 21.791712 -16.661567 -63.966928 -19.290288 -66.679093 16.269273 -2.444660 -10.403468 21.751769 -37.862887 
-252.148605 90.638618 -524.824219 91.512247 -6.499377 -138.959502 179.689914 -5.013396 170.775411 -22.496731 -4.506242 -1.163297 82.482669 -0.763669 -7.747899 21.454558 0.003113 0.000018 147.724807 3.235999 -172.496441 -72.814994 1.299185 4.272675 74.994336 -2.935051 0.551056 21.454562 -0.003096 -0.000000 8.248757 -0.568848 -1.986947 6.502860 -1.025486 -4.002727 6.185552 -1.049760 -3.996482 8.037078 -1.131439 -6.045141 -10.863498 4.078621 -7.618019 -169.812395 -76.939322 -11.863939 -6.946903 60.780323 31.003352 -47.456923 -21.098118 2.104706 7.507237 -4.782891 9.002619 -160.736659 74.859413 21.194316 -16.630042 -63.520951 -22.438589 -54.881635 18.253517 -2.133461 -2.170882 22.609154 -23.873729 
-250.949600 90.624359 -527.294312 91.244613 -5.910066 -141.747708 -177.936905 -4.050200 170.156760 -20.809802 -4.599118 -2.494224 83.682856 0.204969 -8.059783 21.454560 0.003113 0.000017 145.851846 1.938511 -171.849923 -64.601275 2.192392 5.616971 74.157106 -3.833396 0.878691 21.454562 -0.003097 -0.000001 8.255658 -0.465125 -2.161002 6.513990 -0.808246 -4.344758 6.196871 -0.834579 -4.339816 5.355915 -0.687944 -5.436214 -9.689218 2.955050 -6.547353 -171.000302 -77.292149 -10.652812 -10.687509 60.717042 25.199148 -54.578662 -21.099998 2.347305 5.673178 -5.555979 11.707639 -161.779260 75.405193 20.120580 -18.533327 -62.896043 -21.775068 -42.900712 17.597537 -1.706790 6.729749 18.885184 -10.388954 
-249.613403 90.503212 -529.663025 91.094062 -5.530420 -144.454403 -175.224583 -3.039306 169.693536 -18.776777 -4.926653 -3.815441 84.706852 1.198337 -8.158112 21.454560 0.003102 0.000016 145.898496 0.453595 -170.567459 -53.605705 2.528490 7.702280 73.375513 -5.154775 1.462133 21.454555 -0.003093 0.000000 8.331468 -0.407500 -2.283084 6.663945 -0.683204 -4.585828 6.346927 -0.710998 -4.581636 3.501628 -0.212733 -4.889692 -9.480695 2.246371 -5.697753 -174.066510 -77.584508 -7.527918 -13.417312 59.851950 18.621715 -61.644663 -19.755361 2.520458 3.128574 -6.732695 17.793379 -163.109794 75.467341 18.759004 -19.996040 -61.632342 -19.935516 -31.978908 15.249745 -1.285410 11.476022 14.160430 -7.354777 
-248.165207 90.045937 -532.093628 90.432483 -5.643619 -147.024412 -172.691716 -1.124495 169.315403 -16.759204 -5.020796 -5.080258 85.914812 2.160146 -8.242745 21.454560 0.003117 0.000018 146.870637 -0.950386 -167.900243 -41.201398 1.349413 8.796923 71.168659 -5.733180 2.043378 21.454553 -0.003091 -0.000000 8.357550 -0.469002 -2.314824 6.718788 -0.803184 -4.652972 6.401803 -0.831375 -4.648054 2.485655 -0.224586 -4.694578 -9.952129 2.088194 -5.458989 -178.019988 -78.189055 -3.506530 -15.686224 59.113648 12.043925 -68.303510 -17.889959 2.658717 1.296067 -6.917680 23.185313 -163.253747 75.704198 18.609516 -18.648769 -60.527190 -19.466164 -24.857780 13.342711 -1.034098 15.411077 10.369001 -7.897495 
-246.583801 89.616180 -534.481018 89.896088 -5.751546 -149.504303 -169.581207 0.805296 168.825105 -13.589280 -5.165766 -6.172326 86.434248 2.989081 -8.124932 21.454558 0.003109 0.000018 148.740920 -2.910712 -168.346254 -28.474833 1.280590 9.471389 69.595243 -5.867081 3.118490 21.454551 -0.003091 0.000001 8.408932 -0.507202 -2.280012 6.822868 -0.879439 -4.585981 6.505849 -0.907224 -4.580613 1.958774 -0.471462 -4.545852 -10.638399 2.184397 -5.389448 -179.639412 -78.741488 -1.866784 -17.881999 58.105498 6.083541 -73.461280 -15.711991 2.722699 -1.538809 -6.451418 27.035758 -164.586099 76.194025 17.243712 -12.853107 -58.849627 -24.770115 -23.700451 12.682980 -0.974507 16.212986 4.594047 -15.947913 
-244.688995 88.877243 -536.899109 89.269445 -6.008622 -151.589901 -167.040117 2.648000 168.900415 -11.748313 -5.473605 -7.140057 87.603166 3.759855 -8.027216 21.454558 0.003103 0.000017 149.475903 -4.192008 -170.486508 -21.022347 1.239929 9.752509 68.632220 -6.487793 1.853017 21.454555 -0.003091 -0.000001 8.401846 -0.520959 -2.270312 6.809220 -0.907766 -4.567358 6.492178 -0.935438 -4.561816 1.997887 -0.368987 -4.497270 -11.400201 1.549940 -5.147733 179.997273 -79.255446 -1.505934 -19.214760 57.640431 1.300130 -77.663110 -13.469732 2.745949 -2.687732 -7.216352 29.663187 -164.662105 76.613487 17.163092 -6.534516 -55.778562 -34.100901 -25.912624 12.089675 -0.970253 15.304164 0.172900 -27.594799 
-242.550400 88.030937 -539.248291 88.889298 -6.112177 -152.843870 -165.584249 3.641495 168.221467 -12.576415 -5.722255 -7.011797 89.172757 3.818767 -7.697503 21.454558 0.003110 0.000017 148.544361 -4.900406 -171.941352 -21.485830 0.653588 10.775593 69.985520 -7.158127 2.026064 21.454555 -0.003092 -0.000000 8.435570 -0.364966 -2.375436 6.870679 -0.588605 -4.768309 6.553774 -0.617492 -4.764687 2.218334 -0.332769 -4.470440 -11.721795 0.908452 -4.921677 179.045869 -79.181488 -0.537512 -18.970143 57.568243 -2.547033 -81.178287 -11.334551 2.749409 -3.460507 -7.739765 31.280200 -163.560491 76.944110 18.284814 -2.996075 -53.080368 -40.860818 -26.485322 12.165247 -0.984471 11.226497 -4.365243 -37.280344 
-240.085403 87.346367 -541.472473 88.914617 -6.028225 -153.317379 -164.857844 4.042301 167.793350 -15.344017 -5.358049 -6.972752 89.968652 3.772576 -8.067278 21.454558 0.003109 0.000018 147.507825 -4.966505 -171.625223 -26.733697 -0.016920 11.567750 71.445001 -8.346537 -0.080660 21.454551 -0.003092 0.000002 8.532455 -0.015037 -2.589534 7.049268 0.127348 -5.175118 6.732578 0.095998 -5.175793 2.999989 -1.005667 -4.340529 -13.256957 0.679173 -4.840734 -179.946907 -79.167111 -1.561147 -18.071888 58.592143 -3.908525 -82.708987 -10.557898 2.762226 -5.546304 -9.107012 30.367615 -162.534378 77.541505 19.325610 -0.888230 -51.566702 -45.287419 -25.713068 12.596106 -0.999642 9.651752 -7.365815 -39.635301 
-237.178207 86.683807 -543.757202 88.978206 -6.333555 -153.299990 -164.751321 4.199600 166.762443 -20.179724 -4.441778 -5.886095 89.112884 2.715654 -9.557100 21.454557 0.003108 0.000018 147.375866 -4.643603 -170.634668 -33.411588 -1.561555 13.446830 73.373813 -10.003960 -1.474531 21.454557 -0.003092 -0.000001 8.622525 0.281562 -2.699217 7.215221 0.730516 -5.375703 6.898634 0.697949 -5.380005 3.547239 -1.028022 -4.689614 -14.188338 -0.058108 -4.967343 -178.866890 -79.164440 -2.659114 -16.628350 59.878096 -2.592221 -82.972947 -10.612352 2.777713 -5.367531 -10.875869 30.134050 -159.614172 77.080324 22.309426 0.728885 -50.131181 -46.387903 -25.398082 12.548337 -0.991567 11.885138 -8.257615 -37.924185 
